<?xml version="1.0"?>

<!DOCTYPE svg PUBLIC '-//W3C//DTD SVG 1.0//EN' 'http://www.w3.org/TR/2001/REC-SVG-20010904/DTD/svg10.dtd'>
<svg fill-opacity="1" xmlns:xlink="http://www.w3.org/1999/xlink" color-rendering="auto" color-interpolation="auto" text-rendering="auto" stroke="black" stroke-linecap="square" stroke-miterlimit="10" shape-rendering="auto" stroke-opacity="1" fill="black" stroke-dasharray="none" font-weight="normal" stroke-width="1" xmlns="http://www.w3.org/2000/svg" font-family="&apos;Dialog&apos;" font-style="normal" stroke-linejoin="miter" font-size="12" stroke-dashoffset="0" image-rendering="auto" width='10' height='10' fill='ffffff'>
  <!--Unicode Character 'CALENDAR' (U+1F4C5)-->
  <defs id="genericDefs" />
  <g>
    <g>
      <path d="M274.5 413.8594 L11.5312 413.8594 L11.5312 150.8906 L274.5 150.8906 L274.5 413.8594 ZM263.3906 402.75 L263.3906 162 L22.7812 162 L22.7812 402.75 L263.3906 402.75 ZM248.0625 196.0312 L233.7188 196.0312 L233.7188 180.8438 L248.0625 180.8438 L248.0625 196.0312 ZM199.8281 177.3281 L198 177.3281 Q195.75 177.3281 195.6094 173.5312 L199.8281 173.5312 L199.8281 177.3281 ZM196.0312 180.9844 Q196.0312 184.9219 192.0938 184.9219 Q187.875 184.9219 187.875 180.9844 Q187.875 177.3281 192.0938 177.3281 Q196.0312 177.3281 196.0312 180.9844 ZM199.8281 192.6562 L199.2656 192.6562 Q195.6094 192.6562 195.6094 188.4375 Q195.6094 185.0625 199.2656 184.6406 L199.8281 192.6562 ZM188.2969 173.5312 Q186.6094 177.3281 184.2188 177.3281 Q180.1406 177.3281 180.1406 174.375 Q180.1406 174.2344 180.2812 173.5312 L188.2969 173.5312 ZM199.8281 203.3438 L195.6094 203.3438 L195.6094 203.0625 Q195.6094 201.9375 197.1562 200.6719 Q198.7031 199.4062 199.8281 199.5469 L199.8281 203.3438 ZM196.0312 196.0312 Q196.0312 199.9688 191.9531 199.9688 Q187.875 199.9688 187.875 196.0312 Q187.875 192.2344 191.9531 192.2344 Q196.0312 192.2344 196.0312 196.0312 ZM180.5625 180.9844 Q180.5625 184.9219 176.7656 184.9219 Q172.9688 184.9219 172.9688 180.9844 Q172.9688 177.3281 176.7656 177.3281 Q180.5625 177.3281 180.5625 180.9844 ZM188.2969 188.5781 Q188.2969 192.6562 184.5 192.6562 Q180.1406 192.6562 180.1406 188.4375 Q180.1406 184.5 184.2188 184.5 Q188.2969 184.5 188.2969 188.5781 ZM172.8281 175.3594 Q172.8281 177.3281 169.3125 177.3281 Q165.2344 177.3281 165.2344 174.9375 L165.2344 173.5312 L172.8281 173.5312 L172.8281 175.3594 ZM188.2969 203.2031 L180.2812 203.2031 Q180.7031 199.5469 184.2188 199.5469 Q186.1875 199.5469 187.7344 201.375 Q187.7344 202.0781 188.2969 203.2031 ZM180.5625 195.8906 Q180.5625 199.9688 176.7656 199.9688 Q174.7969 199.9688 172.9688 198.1406 L172.9688 194.0625 Q174.9375 192.2344 176.7656 192.2344 Q180.5625 192.2344 180.5625 195.8906 ZM172.9688 188.4375 Q172.9688 192.6562 169.3125 192.6562 Q165.2344 192.6562 165.2344 188.4375 Q165.2344 184.5 169.3125 184.5 Q172.9688 184.5 172.9688 188.4375 ZM165.6562 180.9844 Q165.6562 184.9219 161.8594 184.9219 Q157.5 184.9219 157.5 180.9844 Q157.5 177.3281 161.8594 177.3281 Q165.6562 177.3281 165.6562 180.9844 ZM157.9219 174.9375 Q157.9219 177.3281 154.125 177.3281 Q150.3281 177.3281 150.3281 174.9375 L150.3281 173.5312 L157.9219 173.5312 L157.9219 174.9375 ZM172.8281 203.3438 L165.375 202.9219 Q166.2188 199.5469 169.3125 199.5469 Q171 199.5469 172.8281 201.7969 L172.8281 203.3438 ZM150.75 180.9844 Q150.75 184.9219 146.6719 184.9219 Q142.5938 184.9219 142.5938 181.125 Q142.5938 177.3281 146.6719 177.3281 Q150.75 177.3281 150.75 180.9844 ZM157.9219 188.4375 Q157.9219 192.6562 154.125 192.6562 Q150.3281 192.6562 150.3281 188.5781 Q150.3281 184.5 154.125 184.5 Q157.9219 184.5 157.9219 188.4375 ZM165.6562 196.0312 Q165.6562 199.9688 161.5781 199.9688 Q157.5 199.9688 157.5 196.0312 Q157.5 192.2344 161.8594 192.2344 Q165.6562 192.2344 165.6562 196.0312 ZM143.0156 174.9375 Q143.0156 177.3281 139.2188 177.3281 Q135.2812 177.3281 135.2812 174.5156 Q135.2812 174.375 135.4219 173.5312 L143.0156 173.5312 L143.0156 174.9375 ZM157.9219 203.3438 L150.3281 203.3438 L150.3281 201.7969 Q151.875 199.5469 154.4062 199.5469 Q156.0938 199.5469 157.9219 201.7969 L157.9219 203.3438 ZM143.0156 188.5781 Q143.0156 192.6562 139.2188 192.6562 Q135.2812 192.6562 135.2812 188.4375 Q135.2812 184.5 139.2188 184.5 Q143.0156 184.5 143.0156 188.5781 ZM150.75 195.8906 Q150.75 199.9688 146.6719 199.9688 Q142.5938 199.9688 142.5938 196.0312 Q142.5938 192.2344 146.6719 192.2344 Q150.75 192.2344 150.75 195.8906 ZM135.2812 180.9844 Q135.2812 184.9219 131.625 184.9219 Q127.6875 184.9219 127.6875 180.9844 Q127.6875 177.3281 131.625 177.3281 Q135.2812 177.3281 135.2812 180.9844 ZM128.1094 174.5156 Q128.1094 177.3281 124.1719 177.3281 Q120.7969 177.3281 119.9531 173.5312 L127.9688 173.5312 Q128.1094 173.8125 128.1094 174.5156 ZM143.0156 203.3438 L135.4219 203.3438 L135.4219 201.7969 Q136.9688 199.5469 139.3594 199.5469 Q143.2969 199.5469 143.0156 203.3438 ZM128.1094 188.4375 Q128.1094 192.6562 124.1719 192.6562 Q119.9531 192.6562 119.9531 188.4375 Q119.9531 184.5 124.1719 184.5 Q128.1094 184.5 128.1094 188.4375 ZM120.375 180.9844 Q120.375 184.9219 116.5781 184.9219 Q112.6406 184.9219 112.6406 180.9844 Q112.6406 177.3281 116.5781 177.3281 Q120.375 177.3281 120.375 180.9844 ZM135.2812 196.0312 Q135.2812 199.9688 131.625 199.9688 Q127.6875 199.9688 127.6875 196.0312 Q127.6875 192.2344 131.625 192.2344 Q135.2812 192.2344 135.2812 196.0312 ZM113.0625 173.5312 Q111.375 177.3281 108.9844 177.3281 Q104.9062 177.3281 104.9062 174.375 Q104.9062 174.2344 105.0469 173.5312 L113.0625 173.5312 ZM127.9688 203.2031 L119.9531 203.2031 Q121.0781 199.5469 124.0312 199.5469 Q126.8438 199.5469 127.9688 203.2031 ZM105.4688 180.9844 Q105.4688 184.9219 101.5312 184.9219 Q97.7344 184.9219 97.7344 180.9844 Q97.7344 177.3281 101.5312 177.3281 Q105.4688 177.3281 105.4688 180.9844 ZM113.0625 188.5781 Q113.0625 192.6562 109.2656 192.6562 Q105.0469 192.6562 105.0469 188.4375 Q105.0469 184.5 108.9844 184.5 Q113.0625 184.5 113.0625 188.5781 ZM120.375 196.0312 Q120.375 199.9688 116.7188 199.9688 Q112.6406 199.9688 112.6406 195.8906 Q112.6406 192.2344 116.5781 192.2344 Q120.375 192.2344 120.375 196.0312 ZM97.7344 175.3594 Q97.7344 177.3281 94.7812 177.3281 L93.9375 177.3281 Q90.1406 177.3281 90.1406 174.9375 L90.1406 173.5312 L97.7344 173.5312 L97.7344 175.3594 ZM113.0625 203.2031 L105.0469 203.2031 Q105.4688 199.5469 108.9844 199.5469 Q110.9531 199.5469 112.5 201.375 Q112.5 202.0781 113.0625 203.2031 ZM90.4219 180.9844 Q90.4219 182.9531 88.1719 184.9219 L86.625 184.9219 L86.625 177.3281 L88.5938 177.3281 Q90.4219 179.1562 90.4219 180.9844 ZM105.4688 195.8906 Q105.4688 199.9688 101.5312 199.9688 Q99.5625 199.9688 97.7344 198.1406 L97.7344 194.0625 Q99.7031 192.2344 101.5312 192.2344 Q105.4688 192.2344 105.4688 195.8906 ZM97.7344 188.4375 Q97.7344 192.6562 94.0781 192.6562 Q90 192.6562 90 188.4375 Q90 184.5 94.0781 184.5 Q97.7344 184.5 97.7344 188.4375 ZM97.7344 203.3438 L90.2812 202.9219 Q91.125 199.5469 94.0781 199.5469 Q95.9062 199.5469 97.7344 201.7969 L97.7344 203.3438 ZM90.4219 196.0312 Q90.4219 198.9844 88.1719 199.9688 L86.625 199.9688 L86.625 192.2344 L88.0312 192.2344 Q90.4219 192.2344 90.4219 196.0312 ZM51.4688 196.0312 L37.5469 196.0312 L37.5469 180.8438 L51.4688 180.8438 L51.4688 196.0312 ZM248.0625 383.3438 L37.5469 383.3438 L37.5469 215.8594 L248.0625 215.8594 L248.0625 383.3438 ZM240.3281 247.7812 L240.3281 223.875 L218.6719 223.875 L218.6719 247.7812 L240.3281 247.7812 ZM211.3594 247.7812 L211.3594 223.875 L189.7031 223.875 L189.7031 247.7812 L211.3594 247.7812 ZM240.3281 279.7031 L240.3281 255.9375 L218.6719 255.9375 L218.6719 279.7031 L240.3281 279.7031 ZM182.25 247.7812 L182.25 223.875 L160.5938 223.875 L160.5938 247.7812 L182.25 247.7812 ZM211.3594 279.7031 L211.3594 255.9375 L189.7031 255.9375 L189.7031 279.7031 L211.3594 279.7031 ZM240.3281 311.7656 L240.3281 287.5781 L218.6719 287.5781 L218.6719 311.7656 L240.3281 311.7656 ZM153.7031 247.7812 L153.7031 223.875 L131.9062 223.875 L131.9062 247.7812 L153.7031 247.7812 ZM182.25 279.7031 L182.25 255.9375 L160.5938 255.9375 L160.5938 279.7031 L182.25 279.7031 ZM211.3594 311.7656 L211.3594 287.5781 L189.7031 287.5781 L189.7031 311.7656 L211.3594 311.7656 ZM240.3281 343.4062 L240.3281 319.6406 L218.6719 319.6406 L218.6719 343.4062 L240.3281 343.4062 ZM124.5938 247.7812 L124.5938 223.875 L102.9375 223.875 L102.9375 247.7812 L124.5938 247.7812 ZM153.7031 279.7031 L153.7031 255.9375 L131.9062 255.9375 L131.9062 279.7031 L153.7031 279.7031 ZM182.25 311.625 L182.25 287.5781 L160.875 287.5781 L160.875 311.625 L182.25 311.625 ZM211.3594 343.4062 L211.3594 319.6406 L189.7031 319.6406 L189.7031 343.4062 L211.3594 343.4062 ZM240.3281 375.4688 L240.3281 351.7031 L218.6719 351.7031 L218.6719 375.4688 L240.3281 375.4688 ZM95.4844 247.7812 L95.4844 223.875 L73.8281 223.875 L73.8281 247.7812 L95.4844 247.7812 ZM124.5938 279.7031 L124.5938 255.9375 L102.9375 255.9375 L102.9375 279.7031 L124.5938 279.7031 ZM153.5625 311.625 L153.5625 287.5781 L131.9062 287.5781 L131.9062 311.625 L153.5625 311.625 ZM182.25 343.4062 L182.25 319.6406 L160.5938 319.6406 L160.5938 343.4062 L182.25 343.4062 ZM211.3594 375.4688 L211.3594 351.7031 L189.7031 351.7031 L189.7031 375.4688 L211.3594 375.4688 ZM66.5156 247.7812 L66.5156 223.875 L44.8594 223.875 L44.8594 247.7812 L66.5156 247.7812 ZM95.4844 279.7031 L95.4844 255.9375 L73.8281 255.9375 L73.8281 279.7031 L95.4844 279.7031 ZM124.5938 311.7656 L124.5938 287.5781 L102.9375 287.5781 L102.9375 311.7656 L124.5938 311.7656 ZM153.7031 343.4062 L153.7031 319.6406 L131.9062 319.6406 L131.9062 343.4062 L153.7031 343.4062 ZM182.25 375.4688 L182.25 351.7031 L160.5938 351.7031 L160.5938 375.4688 L182.25 375.4688 ZM66.5156 279.7031 L66.5156 255.9375 L44.8594 255.9375 L44.8594 279.7031 L66.5156 279.7031 ZM95.4844 311.7656 L95.4844 287.5781 L73.8281 287.5781 L73.8281 311.7656 L95.4844 311.7656 ZM124.5938 343.4062 L124.5938 319.6406 L102.9375 319.6406 L102.9375 343.4062 L124.5938 343.4062 ZM153.7031 375.4688 L153.7031 351.7031 L131.9062 351.7031 L131.9062 375.4688 L153.7031 375.4688 ZM66.5156 311.625 L66.5156 287.5781 L45 287.5781 L45 311.625 L66.5156 311.625 ZM95.4844 343.4062 L95.4844 319.6406 L73.8281 319.6406 L73.8281 343.4062 L95.4844 343.4062 ZM124.5938 375.4688 L124.5938 351.7031 L102.9375 351.7031 L102.9375 375.4688 L124.5938 375.4688 ZM66.5156 343.4062 L66.5156 319.6406 L44.8594 319.6406 L44.8594 343.4062 L66.5156 343.4062 ZM95.4844 375.4688 L95.4844 351.7031 L73.8281 351.7031 L73.8281 375.4688 L95.4844 375.4688 ZM66.5156 375.4688 L66.5156 351.7031 L44.8594 351.7031 L44.8594 375.4688 L66.5156 375.4688 Z" stroke="none" />
    </g>
  </g>
</svg>
