<svg width="24" height="25" viewBox="0 0 24 25" fill="none" xmlns="http://www.w3.org/2000/svg">
<path d="M21.6256 6.75741C21.4413 5.59698 20.3804 4.58294 19.2063 4.44845C14.4149 3.92631 9.58098 3.92644 4.78962 4.44887C3.61976 4.5829 2.55884 5.59685 2.37363 6.76162C1.79124 10.5665 1.79147 14.4379 2.37432 18.2427C2.5588 19.4032 3.61976 20.4172 4.79355 20.5516C7.18681 20.8126 9.59249 20.9433 11.9999 20.9432C14.4074 20.9433 16.8131 20.8126 19.2063 20.5516L19.2102 20.5512C20.3802 20.4173 21.4412 19.4033 21.6263 18.2384C22.2086 14.4335 22.2084 10.5622 21.6256 6.75741ZM15.416 13.124L10.916 16.124C10.803 16.1993 10.6717 16.2426 10.5362 16.2491C10.4006 16.2557 10.2657 16.2253 10.1461 16.1612C10.0264 16.0972 9.92631 16.0019 9.85655 15.8854C9.78679 15.769 9.74995 15.6358 9.74995 15.5V9.50001C9.74995 9.36427 9.78679 9.23106 9.85655 9.11461C9.92631 8.99816 10.0264 8.90283 10.1461 8.83878C10.2657 8.77472 10.4006 8.74435 10.5362 8.75091C10.6717 8.75746 10.803 8.80069 10.916 8.87599L15.416 11.876C15.5187 11.9445 15.6029 12.0373 15.6612 12.1461C15.7195 12.255 15.7499 12.3765 15.7499 12.5C15.7499 12.6235 15.7195 12.745 15.6612 12.8539C15.6029 12.9628 15.5187 13.0556 15.416 13.124Z" fill="white"/>
</svg>
